<?xml version="1.0" encoding="utf-8"?>
<!DOCTYPE svg PUBLIC "-//W3C//DTD SVG 1.1//EN" "http://www.w3.org/Graphics/SVG/1.1/DTD/svg11.dtd">
<svg version="1.1" id="Layer_1" xmlns="http://www.w3.org/2000/svg" xmlns:xlink="http://www.w3.org/1999/xlink" x="0px" y="0px"
   width="451.179px" height="150.905px" viewBox="0 0 451.179 150.905" enable-background="new 0 0 451.179 150.905"
   xml:space="preserve">
<g>
  <path d="M0,132.042V0h132.042l-0.125,150.905H18.886L0,132.042z M113.178,113.179V94.315H75.453V75.453h37.726v-56.59H18.863
    v18.863H56.59V56.59H18.863v56.589H113.178z"/>
  <path d="M113.053,150.905L113.178,0h132.043l-0.125,150.905H113.053z M226.358,113.179V56.59h-56.59V37.727h56.59V18.863h-94.316
    v56.59h56.59v18.862h-56.59v18.863H226.358z"/>
  <path d="M225.834,150.905V0h132.041v132.042l-18.865,18.863H225.834z M339.012,113.179V56.59h-56.59V37.727h56.59V18.863h-94.314
    v94.315H339.012z M282.422,94.315V75.453h18.863v18.862H282.422z"/>
</g>
<path d="M376.853,75.452h27.005v5.323h5.323v16.262h-5.323v5.421h-16.262v10.743h-10.743V75.452z M387.694,80.873v16.066h10.646
  V80.873H387.694z"/>
<path d="M413.432,102.458h5.322v-5.421h5.322v-5.42h-5.322v-5.421h-5.322V75.452h10.743v10.744h5.42v5.322h5.421v-5.322h5.421
  V75.452h10.742v10.744h-5.322v5.421h-5.322v5.42h5.322v5.421h5.322v10.743h-10.742v-10.743h-5.421v-5.323h-5.421v5.323h-5.42v10.743
  h-10.743V102.458z"/>
</svg>
